# xmcd
#
# Track frame offsets:
#	150
#	15408
#	32064
#	51620
#	66743
#	80921
#	93185
#	109856
#	124360
#	138676
#
# Disc length: 2042 seconds
#
# Revision: 4
# Processed by: cddbd v1.5.2PL0 Copyright (c) Steve Scherf et al.
# Submitted via: audiograbber 1.83.01
#
DISCID=9707f80a
DTITLE=Flávio José - Tá do Jeito Que Eu Queria
DYEAR=2011
DGENRE=Forró
TTITLE0=Arranchado
TTITLE1=Como Vai Você
TTITLE2=Paixão Malvada
TTITLE3=Tá do Jeito Que Eu Queria
TTITLE4=De Olho Na Janela
TTITLE5=Quando Os Dois Se Quer
TTITLE6=Comer Na Mão
TTITLE7=Paixão Sem Compromisso
TTITLE8=Pra Virar Lobizome
TTITLE9=Um Pedido a São João
EXTD=Dádos Por - Dayvison de Azevedo\nRecife - PE\nFacebook - https://www.faceb
EXTD=ook.com/profile.php?id=100006142608616
EXTT0=
EXTT1=
EXTT2=
EXTT3=
EXTT4=
EXTT5=
EXTT6=
EXTT7=
EXTT8=
EXTT9=
PLAYORDER=
